HIERARCHY
ROOT Hips
{
	OFFSET 0.00000 0.00000 0.00000
	CHANNELS 6 Xposition Yposition Zposition Yrotation Zrotation Xrotation 
	JOINT Lumbar
	{
		OFFSET 0 0 0
		CHANNELS 3 Zrotation Xrotation Yrotation
		JOINT Neck
		{
			OFFSET 0.00 0.2701 0.00
			CHANNELS 3 Zrotation Xrotation Yrotation
			End Site
			{
				OFFSET 0.00 0.1379 0.00
			}
		}
		JOINT RightShoulder
		{
			OFFSET 0.0119 0.2289 0.1181
			CHANNELS 3 Zrotation Xrotation Yrotation
			JOINT RightElbow
			{
				OFFSET 0.00 -0.1475 0.00
				CHANNELS 2 Zrotation Yrotation
				JOINT RightWrist
				{
					OFFSET 0.00 -0.1605 0.00
					CHANNELS 2 Zrotation Xrotation
					End Site
					{
						OFFSET 0.0040 -0.1068 0.0006
					}
				}
			}
		}
		JOINT LeftShoulder
		{
			OFFSET 0.0119 0.2289 -0.1181
			CHANNELS 3 Zrotation Xrotation Yrotation
			JOINT LeftElbow
			{
				OFFSET 0.00 -0.1475 0.00
				CHANNELS 2 Zrotation Yrotation
				JOINT LeftWrist
				{
					OFFSET 0.00 -0.1605 0.00
					CHANNELS 2 Zrotation Xrotation
					End Site
					{
						OFFSET 0.0040 -0.1068 -0.0006
					}
				}
			}
		}
	}
	JOINT RightHip
	{
		OFFSET 0.0316 -0.0424 0.0458
		CHANNELS 3 Zrotation Xrotation Yrotation
		JOINT RightKnee
		{
			OFFSET 0.00 -0.2438 0.00
			CHANNELS 1 Zrotation
			JOINT RightAnkle
			{
				OFFSET 0.00 -0.2449 0.00
				CHANNELS 3 Zrotation Xrotation Yrotation
				End Site
				{
					OFFSET 0.1237 -0.0542 0.0051
				}
			}
		}
	}
	JOINT LeftHip
	{
		OFFSET 0.0316 -0.0424 -0.0458
		CHANNELS 3 Zrotation Xrotation Yrotation
		JOINT LeftKnee
		{
			OFFSET 0.00 -0.2438 0.00
			CHANNELS 1 Zrotation
			JOINT LeftAnkle
			{
				OFFSET 0.00 -0.2449 0.00
				CHANNELS 3 Zrotation Xrotation Yrotation
				End Site
				{
					OFFSET 0.1237 -0.0542 -0.0051
				}
			}
		}
	}
}
MOTION
Frames: 16
Frame Time: 0.02
0.25798 -0.01267 -0.0783 -183.25126 -27.36576 0.92178 38.4574 2.18611 -7.30624 1.01703 -7.06621 -2.11994 65.22006 15.83998 27.52502 127.78254 108.82285 -39.7382 -6.28776 -44.18246 52.32262 -38.93983 99.37822 -102.66302 -17.77977 8.18337 29.16851 2.6244 -11.75523 -25.08901 -5.84598 -1.60126 -2.98316 56.72954 9.00506 2.94651 -47.95152 -10.65746 3.48817 4.14322
0.25964 -0.0126 -0.07872 -182.98187 -27.90085 0.64002 38.57614 2.39917 -7.79212 1.92826 -7.89805 -2.11994 65.25571 15.83013 26.96765 128.15999 107.71286 -37.75425 -6.27119 -44.41856 52.36726 -39.24733 99.38119 -106.70664 -19.60993 8.68555 29.90264 2.90694 -12.06732 -25.01546 -5.86449 -1.59095 -2.97767 57.61605 8.84908 2.0001 -47.8847 -10.78167 3.51374 4.1647
0.26139 -0.01262 -0.07914 -182.67025 -28.48043 0.32945 38.68153 2.66972 -8.15911 2.99096 -8.71525 -2.11994 65.10062 15.84033 26.4854 128.63043 106.68461 -35.74389 -6.29439 -44.35319 52.5546 -39.908 99.31703 -113.50006 -22.99904 9.50744 30.69719 3.20377 -12.45351 -24.95862 -5.88338 -1.57653 -2.97 58.61237 8.60101 0.78755 -47.8772 -10.93163 3.5514 4.19458
0.2631 -0.01261 -0.07956 -182.37625 -29.03968 0.03119 38.7963 2.90981 -8.56628 3.97276 -9.51173 -2.11994 65.01367 15.84289 25.96026 129.07021 105.63906 -33.73069 -6.3207 -44.43325 52.67081 -40.37889 99.29084 -118.54801 -25.41162 10.13088 31.46326 3.49357 -12.81202 -24.89471 -5.90188 -1.56365 -2.96326 59.55808 8.40651 -0.27724 -47.84304 -11.06628 3.58231 4.21965
0.26482 -0.01257 -0.07996 -182.08477 -29.60303 -0.26388 38.89814 3.16922 -9.03682 5.00843 -10.432 -2.11994 65.00694 15.83894 25.47509 129.46689 104.46327 -31.74678 -6.25489 -44.49027 52.80876 -40.96081 99.23454 -125.55212 -28.87457 10.96371 32.23786 3.78608 -13.14426 -24.82821 -5.9214 -1.55249 -2.95691 60.51289 8.16185 -1.45468 -47.80824 -11.21684 3.61837 4.24883
0.26653 -0.0126 -0.08041 -181.78018 -30.16694 -0.5727 39.02333 3.40155 -9.34512 5.96677 -11.08642 -2.11994 64.78648 15.85314 24.92176 129.97013 103.62688 -29.72761 -6.39359 -44.51844 52.93731 -41.40111 99.22474 -129.22271 -30.56988 11.44522 33.00728 4.07621 -13.54979 -24.77129 -5.93888 -1.53658 -2.94914 61.47222 8.00023 -2.4614 -47.78855 -11.34001 3.64662 4.27146
0.26818 -0.0128 -0.08095 -181.44259 -30.72206 -0.90876 39.2161 3.54604 -9.23595 6.67379 -11.02665 -2.11994 64.03007 15.91594 24.18226 130.78279 103.3146 -27.38042 -7.05974 -44.54497 53.00378 -41.35369 99.35696 -122.5801 -26.7722 10.84062 33.749 4.35551 -14.13224 -24.73588 -5.95017 -1.50953 -2.93854 62.41987 8.08833 -2.92538 -47.79693 -11.38251 3.65065 4.27403
0.26982 -0.01307 -0.08153 -181.09515 -31.27542 -1.25826 39.43261 3.66089 -8.96668 7.29734 -10.69565 -2.11994 63.06378 15.99577 23.36828 131.69222 103.40714 -25.04438 -7.93466 -44.54981 53.05726 -41.15601 99.53874 -112.58366 -21.194 9.88079 34.48233 4.63197 -14.78726 -24.70976 -5.95946 -1.47765 -2.92647 63.36674 8.26353 -3.20966 -47.81828 -11.39627 3.64639 4.26971
0.27146 -0.0133 -0.08211 -180.75732 -31.82897 -1.60398 39.63835 3.78859 -8.76906 7.95931 -10.47744 -2.11994 62.18819 16.06563 22.57401 132.53197 103.58498 -22.86057 -8.73318 -44.56079 53.11749 -41.03432 99.69924 -104.42106 -16.58986 9.1091 35.21832 4.91015 -15.41399 -24.67996 -5.96994 -1.44731 -2.91467 64.31163 8.4004 -3.58011 -47.83293 -11.42227 3.64574 4.2685
0.27313 -0.01354 -0.08264 -180.39601 -32.3875 -1.94101 39.84398 3.92119 -8.57201 8.6251 -10.3039 -2.11994 61.32484 16.14551 21.83932 133.48289 102.66512 -20.01223 -9.45858 -44.57945 53.17695 -40.88847 99.85154 -95.04203 -11.34027 8.23277 35.9624 5.18705 -16.02373 -24.64834 -5.97924 -1.41954 -2.90445 65.27116 8.52914 -3.94026 -47.85275 -11.45255 3.64612 4.26764
0.27472 -0.01379 -0.08328 -180.08213 -32.93364 -2.29882 40.05511 4.03548 -8.33736 9.26046 -9.97203 -2.11994 60.38977 16.20841 20.9653 134.2248 104.08095 -18.55018 -10.38094 -44.57799 53.23573 -40.75739 100.03437 -87.36876 -6.99542 7.48946 36.68555 5.4657 -16.68486 -24.62262 -5.99051 -1.38538 -2.89065 66.19747 8.69623 -4.27641 -47.86452 -11.46685 3.6423 4.26435
0.27611 -0.01409 -0.08419 -179.89937 -33.45392 -2.71131 40.2801 4.10863 -8.03799 9.83646 -9.2786 -2.11994 59.29983 16.21941 19.69587 134.35848 112.2423 -20.91899 -11.83323 -44.55356 53.27128 -40.65971 100.28197 -85.17775 -5.54876 7.16645 37.36289 5.7501 -17.47176 -24.61 -6.00759 -1.33442 -2.8671 67.04033 8.95264 -4.58211 -47.84687 -11.44296 3.62822 4.25568
0.27742 -0.0144 -0.08522 -179.76527 -33.95982 -3.14377 40.50888 4.16362 -7.70707 10.38282 -8.43405 -2.11994 58.14797 16.2128 18.29453 134.27932 122.66651 -24.67892 -13.46889 -44.50732 53.30945 -40.58663 100.5599 -84.81085 -5.07093 6.99253 38.01701 6.03614 -18.30688 -24.6031 -6.02672 -1.2773 -2.84005 67.84732 9.24436 -4.86932 -47.82104 -11.40401 3.61023 4.24481
0.27875 -0.01471 -0.0862 -179.61063 -34.46719 -3.56687 40.73326 4.22523 -7.39108 10.93962 -7.65198 -2.11994 57.03008 16.21472 16.97121 134.30211 131.79494 -27.80203 -14.99675 -44.45302 53.36312 -40.53197 100.82961 -83.63185 -4.168 6.7733 38.67531 6.32137 -19.11892 -24.59412 -6.045 -1.2232 -2.81472 68.66533 9.51713 -5.16991 -47.80142 -11.37261 3.59449 4.23516
0.28013 -0.01501 -0.08716 -179.44918 -34.99696 -3.99261 40.9704 4.2929 -7.06633 11.50775 -6.8844 -2.11994 55.87791 16.21504 15.56603 134.30659 142.0651 -30.95641 -16.63738 -44.46833 53.35017 -40.35536 101.0791 -82.28186 -3.14859 6.45452 39.36143 6.60727 -19.93981 -24.58331 -6.06292 -1.16786 -2.78874 69.50725 9.80461 -5.44636 -47.77216 -11.33744 3.57665 4.22441
0.28139 -0.01534 -0.08819 -179.31336 -35.4754 -4.41619 41.18077 4.34381 -6.75519 12.04462 -6.05708 -2.11994 54.78798 16.21424 14.30477 134.29702 150.49104 -34.36154 -18.08121 -44.34047 53.47148 -40.43044 101.37528 -81.745 -2.61382 6.37382 39.9827 6.89157 -20.7511 -24.57752 -6.08202 -1.11385 -2.76337 70.28888 10.06938 -5.76731 -47.76036 -11.30665 3.56216 4.21543
